<svg width="946" height="275" viewBox="0 0 946 275" fill="none" xmlns="http://www.w3.org/2000/svg">
<path fill-rule="evenodd" clip-rule="evenodd" d="M218.797 171.688C231.915 170.107 246.99 174.167 257.623 182.078C268.21 189.926 275.258 201.651 277.222 214.681C279.22 227.68 275.923 240.937 268.069 251.481C258.391 264.449 246.574 268.986 231.189 271.245C201.325 272.819 174.663 259.691 170.837 227.509C169.195 214.43 172.857 201.24 181.003 190.88C190.731 178.734 203.698 173.463 218.797 171.688ZM263.413 219.243C262.136 197.568 243.572 181.016 221.897 182.218C200.118 183.429 183.464 202.105 184.747 223.878C186.03 245.652 204.762 262.239 226.533 260.886C248.199 259.533 264.69 240.913 263.413 219.243Z" fill="black"/>
<path d="M510.54 90.2174C530.244 89.5175 553.065 90.0184 572.964 90.0135L671.956 90.1102C678.452 94.8997 680.853 103.613 670.529 106.492C668.19 107.144 658.393 106.657 655.35 106.657L623.382 106.661L517.355 106.538C498.435 141.905 480.923 178.206 462.174 213.683C453.784 229.56 452.427 229.425 436.424 220.823C432.885 218.924 429.01 216.843 425.447 214.914C413.446 208.656 400.987 201.878 388.784 196.153C385.253 219.108 377.888 242.504 374.333 265.551C373.238 278.122 354.671 275.495 356.999 264.737C363.08 236.626 368.654 208.025 375.293 180.051C375.762 178.364 379.913 175.385 381.497 175.374C389.094 175.322 402.475 183.79 408.836 187.115L446.501 206.599C459.259 181.394 472.761 156.416 485.68 131.283L498.067 107.004C501.496 100.281 503.413 93.0242 510.54 90.2174Z" fill="black"/>
<path fill-rule="evenodd" clip-rule="evenodd" d="M36.5383 174.012C47.9756 173.996 61.749 172.768 71.9641 178.542C78.6431 182.283 83.4523 188.646 85.2268 196.098C89.8277 215.318 78.8752 228.764 60.2629 232.162C69.0765 244.525 79.9443 257.378 89.2268 269.856L74.7561 269.948C74.5531 269.93 74.3477 269.929 74.1477 269.893C70.7782 269.256 47.5601 237.012 43.9866 232.358L12.7073 232.364C12.8236 244.751 12.6605 257.487 12.6311 269.898L0.0617666 269.893C0.218513 238.09 -0.260314 205.968 0.220946 174.197C12.3262 174.05 24.4325 173.988 36.5383 174.012ZM57.1067 186.35C52.3203 185.584 46.0421 185.982 41.0862 186.007L12.6829 186.142L12.6584 220.736C22.8311 220.644 32.9616 220.657 43.1331 220.712C52.206 220.767 60.1969 221.826 67.8206 215.967C77.5629 204.266 72.5288 188.823 57.1067 186.35Z" fill="black"/>
<path d="M467.648 0.448019C487.53 -2.67474 506.193 10.8578 509.413 30.7246C512.628 50.5915 499.182 69.3219 479.331 72.6314C459.345 75.9629 440.465 62.4096 437.228 42.4099C433.99 22.4108 447.632 3.5922 467.648 0.448019Z" fill="black"/>
<path d="M277.211 90.1917C291.261 89.5702 308.685 90.0294 322.93 90.0178L410.761 90.0215C426.178 90.0184 459.272 89.5751 476.147 90.488C480.219 90.7084 486.66 101.634 475.761 106.567C460.956 106.926 444.889 106.616 430.006 106.616L344.477 106.622C330.448 106.572 316.419 106.596 302.391 106.694C294.772 106.74 286.545 107.094 278.995 106.48C269.034 105.669 268.386 94.509 277.211 90.1917Z" fill="black"/>
<path d="M895.196 171.685C914.514 170.443 927.911 174.595 942.931 186.558C940.023 189.852 937.157 193.171 934.328 196.526C922.946 187.519 916.155 184.06 901.601 183.35C892.061 182.886 872.332 188.254 875.357 199.79C880.537 219.525 924.372 210.995 938.167 225.543C943.066 230.705 945.246 233.436 945.644 240.704C947.04 265.558 923.925 270.487 904.65 271.319C885.007 271.246 872.087 267.186 857.704 253.636C860.564 250.397 863.466 247.195 866.411 244.035C880.415 258.547 892.961 260.855 913.296 258.945C929.901 257.383 941.033 242.106 923.668 231.899C919.829 229.646 897.186 225.997 891.338 225.072C868.683 221.502 851.881 207.413 866.577 183.992C871.616 176.13 885.577 172.838 895.196 171.685Z" fill="black"/>
<path d="M671.539 174.068L684.453 174.188C684.667 186.993 684.716 199.802 684.6 212.612C684.581 225.354 682.665 241.023 692.284 250.838C703.998 262.79 731.202 262.49 742.695 250.568C746.143 246.937 748.524 242.425 749.578 237.526C750.876 231.599 750.429 217.902 750.404 211.295L750.429 174.19L763.073 174.128L763.128 185.223L763.165 213.524C763.22 229.493 765.002 246.239 752.676 258.657C735.409 276.046 698.762 275.416 681.795 258.075C677.546 253.716 674.521 248.315 673.027 242.419C670.768 233.693 671.405 219.004 671.435 209.483L671.539 174.068Z" fill="black"/>
<path d="M558.881 175.162C562.61 175.104 567.864 176.181 568.801 180.435C574.918 208.307 581.42 236.265 586.711 264.302C587.562 268.797 585.015 272.709 580.606 273.848C578.322 274.436 575.903 274.05 573.913 272.777C569.346 269.868 567.637 254.891 566.382 249.136L556.126 201.945C554.926 194.781 553.86 196.404 547.444 199.698L513.583 217.443C507.809 220.418 496.004 227.87 489.434 225.966C482.925 223.958 483.09 213.873 488.73 211.124C511.728 199.9 535.657 185.37 558.881 175.162Z" fill="black"/>
<path d="M700.011 53.9095C701.677 53.9242 703.489 53.8765 705.1 54.3602C707.377 55.0442 709.184 56.556 710.219 58.7033C711.774 61.9363 712.196 136.504 710.568 141.118C709.539 144.038 707.157 145.276 704.512 146.511C697.862 146.523 693.478 144.95 693.472 137.376C693.466 111.499 692.566 85.2057 693.974 59.4362C694.109 57.0403 698.224 54.7888 700.011 53.9095Z" fill="black"/>
<path d="M242.632 53.9543C250.581 53.5746 254.292 55.9853 254.262 64.462C254.174 89.7668 254.992 115.296 253.906 140.543C253.799 143.026 250.171 145.369 248.32 146.406C241.081 146.827 236.813 144.88 236.617 136.994C236.206 115.743 236.38 94.4154 236.436 73.1519C236.46 64.3224 234.469 58.8411 242.632 53.9543Z" fill="black"/>
<path d="M215.225 73.5254C230.486 72.4814 225.937 86.8834 226.747 97.1707C226.548 100.766 226.998 104.599 226.724 108.171C226.018 117.385 229.154 121.741 220.577 127.219C219.034 127.308 217.381 127.471 215.849 127.223C213.411 126.828 211.599 125.415 210.274 123.376C208.222 120.218 208.101 83.8439 209.363 79.1837C210.174 76.1864 212.735 74.9141 215.225 73.5254Z" fill="black"/>
<path d="M727.008 73.4874C730.59 73.2614 736.689 73.8786 737.325 78.3852C739.26 92.0243 738.575 107.356 737.889 121.161C737.76 123.764 734.693 125.778 732.776 127.032C729.041 127.599 721.754 126.734 721.344 121.838C720.187 107.944 720.267 92.8497 721.301 78.9632C721.473 76.6046 725.214 74.4536 727.008 73.4874Z" fill="black"/>
</svg>
